<svg xmlns="http://www.w3.org/2000/svg">
  <symbol fill="currentColor" viewBox="0 0 16 16" id="close"
    xmlns="http://www.w3.org/2000/svg">
    <path fill-rule="evenodd" clip-rule="evenodd" d="M8 8.707l3.646 3.647.708-.707L8.707 8l3.647-3.646-.707-.708L8 7.293 4.354 3.646l-.707.708L7.293 8l-3.646 3.646.707.708L8 8.707z"/>
  </symbol>
  <symbol viewBox="0 0 24 24" id="files">
    <path d="M17.5 0h-9L7 1.5V6H2.5L1 7.5v15.07L2.5 24h12.07L16 22.57V18h4.7l1.3-1.43V4.5L17.5 0zm0 2.12l2.38 2.38H17.5V2.12zm-3 20.38h-12v-15H7v9.07L8.5 18h6v4.5zm6-6h-12v-15H16V6h4.5v10.5z" fill="currentColor" />
  </symbol>
  <symbol viewBox="0 0 24 24" id="search">
    <path d="M15.25 0a8.25 8.25 0 00-6.18 13.72L1 22.88l1.12 1 8.05-9.12A8.251 8.251 0 1015.25.01V0zm0 15a6.75 6.75 0 110-13.5 6.75 6.75 0 010 13.5z" fill="currentColor" />
  </symbol>
  <symbol viewBox="0 0 24 24" id="source-control">
    <path d="M21.007 8.222A3.738 3.738 0 0015.045 5.2a3.737 3.737 0 001.156 6.583 2.988 2.988 0 01-2.668 1.67h-2.99a4.456 4.456 0 00-2.989 1.165V7.4a3.737 3.737 0 10-1.494 0v9.117a3.776 3.776 0 101.816.099 2.99 2.99 0 012.668-1.667h2.99a4.484 4.484 0 004.223-3.039 3.736 3.736 0 003.25-3.687zM4.565 3.738a2.242 2.242 0 114.484 0 2.242 2.242 0 01-4.484 0zm4.484 16.441a2.242 2.242 0 11-4.484 0 2.242 2.242 0 014.484 0zm8.221-9.715a2.242 2.242 0 110-4.485 2.242 2.242 0 010 4.485z" fill="currentColor" />
  </symbol>
  <symbol viewBox="0 0 24 24" id="extensions">
    <path fill-rule="evenodd" clip-rule="evenodd" d="M13.5 1.5L15 0h7.5L24 1.5V9l-1.5 1.5H15L13.5 9V1.5zm1.5 0V9h7.5V1.5H15zM0 15V6l1.5-1.5H9L10.5 6v7.5H18l1.5 1.5v7.5L18 24H1.5L0 22.5V15zm9-1.5V6H1.5v7.5H9zM9 15H1.5v7.5H9V15zm1.5 7.5H18V15h-7.5v7.5z" fill="currentColor" />
  </symbol>
  <symbol viewBox="0 0 16 16" id="account">
    <path d="M16 7.992C16 3.58 12.416 0 8 0S0 3.58 0 7.992c0 2.43 1.104 4.62 2.832 6.09.016.016.032.016.032.032.144.112.288.224.448.336.08.048.144.111.224.175A7.98 7.98 0 008.016 16a7.98 7.98 0 004.48-1.375c.08-.048.144-.111.224-.16.144-.111.304-.223.448-.335.016-.016.032-.016.032-.032 1.696-1.487 2.8-3.676 2.8-6.106zm-8 7.001c-1.504 0-2.88-.48-4.016-1.279.016-.128.048-.255.08-.383a4.17 4.17 0 01.416-.991c.176-.304.384-.576.64-.816.24-.24.528-.463.816-.639.304-.176.624-.304.976-.4A4.15 4.15 0 018 10.342a4.185 4.185 0 012.928 1.166c.368.368.656.8.864 1.295.112.288.192.592.24.911A7.03 7.03 0 018 14.993zm-2.448-7.4a2.49 2.49 0 01-.208-1.024c0-.351.064-.703.208-1.023.144-.32.336-.607.576-.847.24-.24.528-.431.848-.575.32-.144.672-.208 1.024-.208.368 0 .704.064 1.024.208.32.144.608.336.848.575.24.24.432.528.576.847.144.32.208.672.208 1.023 0 .368-.064.704-.208 1.023a2.84 2.84 0 01-.576.848 2.84 2.84 0 01-.848.575 2.715 2.715 0 01-2.064 0 2.84 2.84 0 01-.848-.575 2.526 2.526 0 01-.56-.848zm7.424 5.306c0-.032-.016-.048-.016-.08a5.22 5.22 0 00-.688-1.406 4.883 4.883 0 00-1.088-1.135 5.207 5.207 0 00-1.04-.608 2.82 2.82 0 00.464-.383 4.2 4.2 0 00.624-.784 3.624 3.624 0 00.528-1.934 3.71 3.71 0 00-.288-1.47 3.799 3.799 0 00-.816-1.199 3.845 3.845 0 00-1.2-.8 3.72 3.72 0 00-1.472-.287 3.72 3.72 0 00-1.472.288 3.631 3.631 0 00-1.2.815 3.84 3.84 0 00-.8 1.199 3.71 3.71 0 00-.288 1.47c0 .352.048.688.144 1.007.096.336.224.64.4.927.16.288.384.544.624.784.144.144.304.271.48.383a5.12 5.12 0 00-1.04.624c-.416.32-.784.703-1.088 1.119a4.999 4.999 0 00-.688 1.406c-.016.032-.016.064-.016.08C1.776 11.636.992 9.91.992 7.992.992 4.14 4.144.991 8 .991s7.008 3.149 7.008 7.001a6.96 6.96 0 01-2.032 4.907z" fill="currentColor" />
  </symbol>
  <symbol viewBox="0 0 24 24" id="settings-gear">
    <path fill-rule="evenodd" clip-rule="evenodd" d="M19.85 8.75l4.15.83v4.84l-4.15.83 2.35 3.52-3.43 3.43-3.52-2.35-.83 4.15H9.58l-.83-4.15-3.52 2.35-3.43-3.43 2.35-3.52L0 14.42V9.58l4.15-.83L1.8 5.23 5.23 1.8l3.52 2.35L9.58 0h4.84l.83 4.15 3.52-2.35 3.43 3.43-2.35 3.52zm-1.57 5.07l4-.81v-2l-4-.81-.54-1.3 2.29-3.43-1.43-1.43-3.43 2.29-1.3-.54-.81-4h-2l-.81 4-1.3.54-3.43-2.29-1.43 1.43L6.38 8.9l-.54 1.3-4 .81v2l4 .81.54 1.3-2.29 3.43 1.43 1.43 3.43-2.29 1.3.54.81 4h2l.81-4 1.3-.54 3.43 2.29 1.43-1.43-2.29-3.43.54-1.3zm-8.186-4.672A3.43 3.43 0 0112 8.57 3.44 3.44 0 0115.43 12a3.43 3.43 0 11-5.336-2.852zm.956 4.274c.281.188.612.288.95.288A1.7 1.7 0 0013.71 12a1.71 1.71 0 10-2.66 1.422z" fill="currentColor" />
  </symbol>
  <symbol fill="currentColor" viewBox="0 0 16 16" id="sync">
    <path fill-rule="evenodd" clip-rule="evenodd" d="M2.006 8.267L.78 9.5 0 8.73l2.09-2.07.76.01 2.09 2.12-.76.76-1.167-1.18a5 5 0 009.4 1.983l.813.597a6 6 0 01-11.22-2.683zm10.99-.466L11.76 6.55l-.76.76 2.09 2.11.76.01 2.09-2.07-.75-.76-1.194 1.18a6 6 0 00-11.11-2.92l.81.594a5 5 0 019.3 2.346z" fill="currentColor" />
  </symbol>
  <symbol fill="currentColor" viewBox="0 0 16 16" id="error">
    <path fill-rule="evenodd" clip-rule="evenodd" d="M8.6 1c1.6.1 3.1.9 4.2 2 1.3 1.4 2 3.1 2 5.1 0 1.6-.6 3.1-1.6 4.4-1 1.2-2.4 2.1-4 2.4-1.6.3-3.2.1-4.6-.7-1.4-.8-2.5-2-3.1-3.5C.9 9.2.8 7.5 1.3 6c.5-1.6 1.4-2.9 2.8-3.8C5.4 1.3 7 .9 8.6 1zm.5 12.9c1.3-.3 2.5-1 3.4-2.1.8-1.1 1.3-2.4 1.2-3.8 0-1.6-.6-3.2-1.7-4.3-1-1-2.2-1.6-3.6-1.7-1.3-.1-2.7.2-3.8 1-1.1.8-1.9 1.9-2.3 3.3-.4 1.3-.4 2.7.2 4 .6 1.3 1.5 2.3 2.7 3 1.2.7 2.6.9 3.9.6zM7.9 7.5L10.3 5l.7.7-2.4 2.5 2.4 2.5-.7.7-2.4-2.5-2.4 2.5-.7-.7 2.4-2.5-2.4-2.5.7-.7 2.4 2.5z" fill="currentColor" />
  </symbol>
  <symbol fill="currentColor" viewBox="0 0 16 16" id="warning">
    <path fill-rule="evenodd" clip-rule="evenodd" d="M7.56 1h.88l6.54 12.26-.44.74H1.44L1 13.26 7.56 1zM8 2.28L2.28 13H13.7L8 2.28zM8.625 12v-1h-1.25v1h1.25zm-1.25-2V6h1.25v4h-1.25z" fill="currentColor" />
  </symbol>
  <symbol fill="currentColor" viewBox="0 0 16 16" id="git-commit">
    <path d="M10.979 5a3.42 3.42 0 00-2-1V0h-1v4a3.5 3.5 0 00-.18 6.89h.18v4h1v-4a3.08 3.08 0 00.84-.23 3.42 3.42 0 001.57-1.29 3.46 3.46 0 00-.41-4.37zm-.7 4.24a2.51 2.51 0 01-3.159.31 2.5 2.5 0 01-.92-1.12 2.49 2.49 0 011.82-3.41 2.72 2.72 0 01.49 0 2.5 2.5 0 012.54 2.5 2.51 2.51 0 01-.8 1.75l.03-.03z" fill="currentColor" />
  </symbol>
  <symbol viewBox="0 0 16 16" id="globe">
    <path fill-rule="evenodd" clip-rule="evenodd" d="M8.5 1a6.5 6.5 0 110 13 6.5 6.5 0 010-13zm4.894 4a5.527 5.527 0 00-3.053-2.676c.444.84.765 1.74.953 2.676h2.1zm.582 2.995A5.11 5.11 0 0014 7.5a5.464 5.464 0 00-.213-1.5h-2.342c.032.331.055.664.055 1a10.114 10.114 0 01-.206 2h2.493c.095-.329.158-.665.19-1.005zm-3.535 0l.006-.051A9.04 9.04 0 0010.5 7a8.994 8.994 0 00-.076-1H6.576A8.82 8.82 0 006.5 7a8.98 8.98 0 00.233 2h3.534c.077-.332.135-.667.174-1.005zM10.249 5a8.974 8.974 0 00-1.255-2.97C8.83 2.016 8.666 2 8.5 2a3.62 3.62 0 00-.312.015l-.182.015L8 2.04A8.97 8.97 0 006.751 5h3.498zM5.706 5a9.959 9.959 0 01.966-2.681A5.527 5.527 0 003.606 5h2.1zM3.213 6A5.48 5.48 0 003 7.5 5.48 5.48 0 003.213 9h2.493A10.016 10.016 0 015.5 7c0-.336.023-.669.055-1H3.213zm2.754 4h-2.36a5.515 5.515 0 003.819 2.893A10.023 10.023 0 015.967 10zM8.5 12.644A8.942 8.942 0 009.978 10H7.022A8.943 8.943 0 008.5 12.644zM11.033 10a10.024 10.024 0 01-1.459 2.893A5.517 5.517 0 0013.393 10h-2.36z" fill="currentColor" />
  </symbol>
  <symbol viewBox="0 0 16 16" id="copilot">
    <path fill-rule="evenodd" clip-rule="evenodd" d="M205.28,31.36 C219.376,46.24 225.296,66.56 227.792,95.04 C234.417867,95.04 240.5968,96.5093333 244.768,102.192 L252.56,112.752 C254.8,115.792 256,119.424 256,123.2 L256,151.888 C255.992,155.592267 254.1568,159.203467 251.168,161.392 C215.885333,187.222133 172.3496,208 128,208 C78.9344,208 29.8098667,179.726667 4.832,161.392 C1.84330667,159.203467 0.00722666667,155.592267 0,151.888 L0,123.2 C0,119.424 1.2,115.776 3.424,112.736 L11.216,102.192 C15.3891733,96.5349333 21.5953067,95.04 28.208,95.04 C30.704,66.56 36.608,46.24 50.72,31.36 C77.3312,3.1648 112.56728,0.06016 127.552142,0.00088672 L128,0 C142.72,0 178.4,2.88 205.28,31.36 Z M128.016,78.736 C124.976,78.736 121.472,78.912 117.744,79.28 C116.432,84.176 114.496,88.592 111.664,91.408 C100.464,102.608 86.96,104.336 79.728,104.336 C72.9258667,104.336 65.8005333,102.915733 59.984,99.248 C54.4816,101.056 49.1978667,103.6632 48.848,110.16 C48.2621333,122.440533 48.2112,134.709333 48.1602667,146.984 C48.1336,153.144533 48.1093333,159.3064 48.016,165.472 C48.04,169.050667 50.1978667,172.3752 53.456,173.856 C79.936,185.92 104.976,192 128.016,192 C151.024,192 176.064,185.92 202.528,173.856 C205.786133,172.3752 207.9432,169.050667 207.968,165.472 C208.285333,147.0536 208.029867,128.560267 207.152,110.16 L207.168,110.16 C206.826133,103.625867 201.520267,101.061867 196,99.248 C190.179467,102.899733 183.072533,104.336 176.272,104.336 C169.04,104.336 155.552,102.608 144.336,91.408 C141.504,88.592 139.568,84.176 138.256,79.28 C134.853333,78.9338667 131.436,78.7525333 128.016,78.736 Z M101.074933,122.666667 C106.8232,122.666667 111.4832,127.326667 111.4832,133.074933 L111.4832,152.2584 C111.4832,158.006667 106.8232,162.666667 101.074933,162.666667 C95.3266667,162.666667 90.6666667,158.006667 90.6666667,152.2584 L90.6666667,133.074933 C90.6666667,127.326667 95.3266667,122.666667 101.074933,122.666667 Z M154.408267,122.666667 C160.156533,122.666667 164.816533,127.326667 164.816533,133.074933 L164.816533,133.074933 L164.816533,152.2584 C164.816533,158.006667 160.156533,162.666667 154.408267,162.666667 C148.66,162.666667 144,158.006667 144,152.2584 L144,152.2584 L144,133.074933 C144,127.326667 148.66,122.666667 154.408267,122.666667 Z M81.44,28.32 C70.24,29.44 60.8,33.12 56,38.24 C45.6,49.6 47.84,78.4 53.76,84.48 C58.08,88.8 66.24,91.68 75.04,91.68 C81.76,91.68 94.56,90.24 105.12,79.52 C109.76,75.04 112.64,63.84 112.32,52.48 C112,43.36 109.44,35.84 105.6,32.64 C101.44,28.96 92,27.36 81.44,28.32 Z M150.4,32.64 C146.56,35.84 144,43.36 143.68,52.48 C143.36,63.84 146.24,75.04 150.88,79.52 C161.44,90.24 174.24,91.68 180.96,91.68 C189.76,91.68 197.92,88.8 202.24,84.48 C208.16,78.4 210.4,49.6 200,38.24 C195.2,33.12 185.76,29.44 174.56,28.32 C164,27.36 154.56,28.96 150.4,32.64 Z M128,56 C125.44,56 122.4,56.16 119.04,56.48 C119.36,58.24 119.52,60.16 119.68,62.24 C119.68,63.68 119.68,65.12 119.52,66.72 C122.72,66.4 125.44,66.4 128,66.4 C130.559733,66.4 133.28,66.4 136.48,66.72 C136.32,65.12 136.32,63.6802667 136.32,62.2402667 C136.48,60.1602667 136.64,58.24 136.96,56.48 C133.6,56.16 130.56,56 128,56 Z" fill="currentColor" />
  </symbol>
  <symbol fill="currentColor" viewBox="0 0 16 16" id="feedback">
    <path d="M7.549 10.078c.46.182.88.424 1.258.725.378.3.701.65.97 1.046a4.829 4.829 0 01.848 2.714V15H9.75v-.438a3.894 3.894 0 00-1.155-2.782 4.054 4.054 0 00-1.251-.84 3.898 3.898 0 00-1.532-.315A3.894 3.894 0 003.03 11.78a4.06 4.06 0 00-.84 1.251c-.206.474-.31.985-.315 1.531V15H1v-.438a4.724 4.724 0 01.848-2.713 4.918 4.918 0 012.229-1.77 2.994 2.994 0 01-.555-.493 3.156 3.156 0 01-.417-.602 2.942 2.942 0 01-.26-.683 3.345 3.345 0 01-.095-.739c0-.423.08-.82.24-1.189a3.095 3.095 0 011.626-1.627 3.067 3.067 0 012.386-.007 3.095 3.095 0 011.627 1.627 3.067 3.067 0 01.157 1.928c-.06.237-.148.465-.266.684a3.506 3.506 0 01-.417.608c-.16.187-.345.35-.554.492zM5.812 9.75c.301 0 .584-.057.848-.17a2.194 2.194 0 001.162-1.163c.119-.269.178-.554.178-.854a2.138 2.138 0 00-.643-1.538 2.383 2.383 0 00-.697-.472 2.048 2.048 0 00-.848-.178c-.3 0-.583.057-.847.17a2.218 2.218 0 00-1.17 1.17c-.113.264-.17.547-.17.848 0 .3.057.583.17.847.115.264.27.497.466.697a2.168 2.168 0 001.552.643zM15 1v7h-1.75l-2.625 2.625V8H9.75v-.875h1.75v1.388l1.388-1.388h1.237v-5.25h-8.75v1.572a7.255 7.255 0 00-.438.069 2.62 2.62 0 00-.437.123V1H15z" fill="currentColor" />
  </symbol>
  <symbol fill="currentColor" viewBox="0 0 16 16" id="alert">
    <path fill-rule="evenodd" clip-rule="evenodd" d="M7.56 1h.88l6.54 12.26-.44.74H1.44L1 13.26 7.56 1zM8 2.28L2.28 13H13.7L8 2.28zM8.625 12v-1h-1.25v1h1.25zm-1.25-2V6h1.25v4h-1.25z" fill="currentColor" />
  </symbol>
</svg>
